inDegrees=no
num_controls=7
num_derivatives=13
num_iterations=107
num_multipliers=7
num_parameters=0
num_slacks=7
num_states=26
objective=0.477057
objective_accelerations=0.044539
objective_balance=0.003737
objective_effort=0.040976
objective_height=0.382139
objective_ligament=0.005666
solver_duration=1484.045305
status=Solve_Succeeded
success=true
DataType=double
version=3
OpenSimVersion=4.5
endheader
time	/jointset/ground_pelvis/pelvis_tilt/value	/jointset/ground_pelvis/pelvis_tx/value	/jointset/ground_pelvis/pelvis_ty/value	/jointset/hip_l/hip_flexion_l/value	/jointset/hip_l/hip_adduction_l/value	/jointset/hip_l/hip_rotation_l/value	/jointset/back/lumbar_extension/value	/jointset/patellofemoral_l/patellar_flexion_l/value	/jointset/knee_l/knee_flexion_l/value	/jointset/knee_l/knee_adduction_l/value	/jointset/knee_l/knee_rotation_l/value	/jointset/ankle_l/ankle_angle_l/value	/jointset/subtalar_l/subtalar_angle_l/value	/jointset/ground_pelvis/pelvis_tilt/speed	/jointset/ground_pelvis/pelvis_tx/speed	/jointset/ground_pelvis/pelvis_ty/speed	/jointset/hip_l/hip_flexion_l/speed	/jointset/hip_l/hip_adduction_l/speed	/jointset/hip_l/hip_rotation_l/speed	/jointset/back/lumbar_extension/speed	/jointset/patellofemoral_l/patellar_flexion_l/speed	/jointset/knee_l/knee_flexion_l/speed	/jointset/knee_l/knee_adduction_l/speed	/jointset/knee_l/knee_rotation_l/speed	/jointset/ankle_l/ankle_angle_l/speed	/jointset/subtalar_l/subtalar_angle_l/speed	/forceset/tau_hip_flexion_l	/forceset/tau_hip_adduction_l	/forceset/tau_hip_rotation_l	/forceset/tau_knee_flexion_l	/forceset/tau_ankle_angle_l	/forceset/tau_subtalar_angle_l	/forceset/tau_lumbar_extension	lambda_cid13_p0	lambda_cid13_p1	lambda_cid13_p2	lambda_cid13_p3	lambda_cid13_p4	lambda_cid13_p5	lambda_cid14_p0	/jointset/ground_pelvis/pelvis_tilt/accel	/jointset/ground_pelvis/pelvis_tx/accel	/jointset/ground_pelvis/pelvis_ty/accel	/jointset/hip_l/hip_flexion_l/accel	/jointset/hip_l/hip_adduction_l/accel	/jointset/hip_l/hip_rotation_l/accel	/jointset/back/lumbar_extension/accel	/jointset/patellofemoral_l/patellar_flexion_l/accel	/jointset/knee_l/knee_flexion_l/accel	/jointset/knee_l/knee_adduction_l/accel	/jointset/knee_l/knee_rotation_l/accel	/jointset/ankle_l/ankle_angle_l/accel	/jointset/subtalar_l/subtalar_angle_l/accel	gamma_cid13_p0	gamma_cid13_p1	gamma_cid13_p2	gamma_cid13_p3	gamma_cid13_p4	gamma_cid13_p5	gamma_cid14_p0
0	-0.0367897209666572	0.05666303863395938	0.9203421746792583	0.3085816938045678	-0.2956306971937899	-0.3013935820880563	-0.3879492264334186	0.2499269421184969	0.2499269421184919	-0.1745328283740357	-0.1743230669072139	-0.0008036623358878681	0.0004449952353700148	0	0	0	0	0	0	0	0	0	0	0	0	0	0.07565224830432397	-0.04314805267090594	-0.01987836916323106	-0.2427973951510334	0.1863999776577898	-0.0193686734556299	-0.001943262131328763	16.33449029619316	2.902538784333943	2.109000881122199	13.27298166056995	-618.9796599006662	-69.36771821482138	-23.18978443389591	-1.088276931400222	-2.167380683341166	-0.9579612704494718	9.614078780210463	-0.887906876795895	3.434050237701626	-7.578262382001935	9.502743810274376	9.502743810274334	1.20310335084379	-0.03447656453909997	1.486813727344584	-0.4480693477175749	3.074102524799948e-09	2.220093542224839e-07	1.025037501950126e-07	-2.667625703476138e-08	2.159030023590524e-07	3.314419555655612e-09	1.803977367049387e-09
0.01	-0.03684064317971657	0.05655694490945937	0.9202955208785465	0.3090488486636015	-0.2956746821792626	-0.3012227430724492	-0.3883230814145295	0.2503906542817312	0.2503906542817188	-0.174475769581015	-0.1743219118056162	-0.0007312698623806645	0.0004223532660362654	-0.01017438648607833	-0.02101047140388386	-0.009274195695655397	0.09279342200691164	-0.008695150542410835	0.03386973777626415	-0.07390158324955426	0.09211480202150291	0.092114802021502	0.01141028853054526	0.000189352757182614	0.01446323659989869	-0.004425083994211937	0.06694986074438032	-0.0504827274794418	-0.01883883486402789	-0.2360185779464255	0.1769439133853258	-0.006915453113600603	0.006537254783740519	13.57792059913693	-1.97694989815151	2.834051073761676	12.5407428533256	-623.4511851483569	-78.84749318903802	-23.19511237365752	-0.9805255447550963	-2.036644680118782	-0.9036208715194604	9.016331157170827	-0.8450937938627242	3.31872164156353	-7.165694350229444	8.971703443737821	8.971703443737805	1.109819575620747	0.03940112199810186	1.423795928761986	-0.4242788689089492	-3.219456294973188e-08	1.922302331079442e-07	1.631003679164656e-07	1.589030595745654e-08	3.33267359481864e-08	-4.343523227490405e-08	-6.121504274392763e-09
0.02	-0.03699301046515418	0.0562469936086788	0.9201578306903987	0.3104248091919486	-0.295802573600339	-0.3007221494602839	-0.3894098698388974	0.2517566854742987	0.2517566854742995	-0.1743046423084001	-0.1743201111912318	-0.000514701562384823	0.0003585502680331729	-0.0202890144738608	-0.04077151525610907	-0.01820727748719921	0.1817611338633967	-0.01678128712078354	0.06595091931151387	-0.1425866886509782	0.1804638058689882	0.1804638058689896	0.02281369591952487	0.0001291025604116309	0.02883516529777568	-0.008232205733861703	0.05824747318444734	-0.05781740228797548	-0.01779930056472835	-0.2292397607418306	0.1674878491128616	0.00553776722842978	0.01501777169881904	10.89383986031762	-6.86751347921818	3.559019443756861	11.70437325060599	-626.8324682569749	-88.23783137765103	-23.21070349704463	-1.076325231740884	-1.917495173009572	-0.8897384896271548	8.848936750125151	-0.7661040839882614	3.076338989498729	-6.534966812375763	8.749584175470872	8.749584175471481	1.201727122530683	-0.08439715532984053	1.468552146940099	-0.324476896805183	-6.746322842426371e-08	1.624511119934045e-07	2.236969856379187e-07	5.845686894967447e-08	-1.492495304626796e-07	-9.018488410546371e-08	-1.404698591583491e-08
0.03	-0.03724543724311982	0.05574483270628344	0.9199320463493145	0.3126735887925076	-0.2960086874336261	-0.2999085915374231	-0.3911631096561318	0.2539908380053093	0.2539908380053149	-0.1740195473045397	-0.1743203135736957	-0.0001543867881364274	0.0002594887038413811	-0.03007634655515802	-0.05953580827448329	-0.02693376146077761	0.2675284635742982	-0.02439021017927902	0.09659868466262329	-0.2077937960696564	0.2660556080340576	0.2660556080340595	0.03417144492605605	-0.0001966198422042541	0.04325198427656567	-0.0115181375985585	0.05440466764610477	-0.05303220421975261	-0.01752733274594414	-0.2278709984915557	0.1686058733638631	0.002539518491109977	0.0187430069955662	11.13513760687596	-5.638086379459682	3.397811170701136	10.58112545181337	-627.6781139062825	-85.05607246576297	-23.2358394605954	-0.9119444415469877	-1.83715596095275	-0.8617595484809549	8.370672476137301	-0.7506477858841372	3.03467117559506	-6.473460897395399	8.417317233599579	8.417317233599235	1.097768523431533	-0.01068202059621776	1.431876223315009	-0.3214069413969698	-8.75431184660913e-08	9.831940310631893e-08	2.897843558220387e-07	6.854341199004953e-08	-2.276537267007677e-07	-1.449639733061374e-07	-2.81833729861589e-08
0.04	-0.03759213879095254	0.05505877695476375	0.9196194659290424	0.3157660499690814	-0.2962893627713172	-0.298793420787514	-0.393560396185712	0.2570715763572887	0.25707157635729	-0.1736218808638662	-0.1743245776277534	0.000350822065892931	0.0001294166989835655	-0.03914396844533091	-0.07755048508097293	-0.03556649332476701	0.3504974490677875	-0.03169358800192947	0.1262734847208513	-0.2713960311195762	0.349780970062109	0.3497809700621057	0.04532798328127578	-0.0006832317595716252	0.05781398125401742	-0.01443429386705637	0.05056186210774025	-0.04824700615153329	-0.01725536492720078	-0.2265022362413	0.169723897614854	-0.000458730246216655	0.02246824229230845	11.4430174824862	-4.417457522046652	3.23473870136448	9.354697759972026	-627.535192308771	-81.78782090476764	-23.26978252328044	-0.9323831935158488	-1.767571930632773	-0.8709880677093537	8.289267906642714	-0.7049950368192481	2.881745930922437	-6.213992338623959	8.376296148067272	8.376296148066757	1.161484992268413	-0.1165750582801575	1.49758774667232	-0.250521777565436	-1.073098378804404e-07	3.347939344041796e-08	3.559849373971415e-07	7.79602638973969e-08	-3.039100452033346e-07	-1.999086179165041e-07	-4.244781996223304e-08
0.05	-0.03802673926025561	0.0541966391831599	0.9192208965577726	0.3196743664455413	-0.2966410768666518	-0.2973864361347056	-0.3965824423692771	0.2609792850113941	0.260979285011392	-0.1731132770330699	-0.1743340357024735	0.001002278695541382	-2.75259877715023e-05	-0.04771180565655	-0.09472048358506467	-0.04414016934483262	0.4306811962916794	-0.03855397700393119	0.155019182899902	-0.3324521288679875	0.4313418356272916	0.4313418356272834	0.0563830617867301	-0.001122281707268659	0.07249286530958036	-0.01685118346456526	0.04307914365577314	-0.04615081493646641	-0.01637509174285303	-0.2214607110284329	0.1646474693908402	0.001787556963788665	0.02922446259362779	9.896948859754842	-5.147334905588756	3.379680186398135	8.862629269751087	-628.5858287058594	-82.29621765168756	-23.31155862620178	-0.8093406555126699	-1.668210294248375	-0.8495370297249615	7.810219249164534	-0.6623204838057996	2.855287848357998	-5.967256983880325	7.98315159591715	7.983151595916746	1.076100168114449	0.005407025715255079	1.455363201639352	-0.2218591710268625	-1.176944670327533e-07	8.479817917261597e-08	3.609106806675638e-07	1.023200668644198e-07	-3.697797135735474e-07	-1.928193406149549e-07	-3.578091452167702e-08
0.06	-0.03854508943579642	0.05316750212972462	0.9187367944941879	0.3243699786180143	-0.2970585467823889	-0.2956951332827135	-0.4001982172285151	0.265690036288184	0.2656900362881842	-0.1724944062395342	-0.1743452888789271	0.001800989059073433	-0.0002055548945383504	-0.0558939096912499	-0.1109503414472615	-0.05267303178774187	0.507956588271654	-0.04484475208254128	0.1831371245574157	-0.390141766253604	0.5103894945994095	0.510389494599399	0.06738137582940658	-0.001042252105777103	0.08726472803078537	-0.01865153786940358	0.03559642520379965	-0.04405462372139182	-0.01549481855849654	-0.2164191858155701	0.1595710411668286	0.004033844173802626	0.03598068289493919	8.410944966609806	-5.885757535923659	3.523732098389547	8.265967499330184	-628.7459990787028	-82.72735169985089	-23.35982879198324	-0.8552365582118537	-1.579543802253907	-0.8628253522780812	7.707596857859275	-0.5910722521409157	2.756194626615012	-5.540700266064903	7.873654829454353	7.873654829454351	1.15013209971287	-0.01275914844245757	1.516183479800615	-0.1272147390313576	-1.276840608056119e-07	1.41007861553155e-07	3.632564307462101e-07	1.273090467181659e-07	-4.352120493066083e-07	-1.831181087065883e-07	-2.823268897936815e-08
